<svg xmlns="http://www.w3.org/2000/svg" viewBox="0 0 576 512"><!--!Font Awesome Free 6.7.2 by @fontawesome - https://fontawesome.com License - https://fontawesome.com/license/free Copyright 2025 Fonticons, Inc.--><path d="M570.7 236.3 512 184.4V48a16 16 0 0 0 -16-16H432a16 16 0 0 0 -16 16V99.7L314.8 10.3C308.5 4.6 296.5 0 288 0s-20.5 4.6-26.7 10.3l-256 226A18.3 18.3 0 0 0 0 248.2a18.6 18.6 0 0 0 4.1 10.7L25.5 282.7a21.1 21.1 0 0 0 12 5.3 21.7 21.7 0 0 0 10.7-4.1l15.9-14V480a32 32 0 0 0 32 32H480a32 32 0 0 0 32-32V269.9l15.9 14A21.9 21.9 0 0 0 538.6 288a20.9 20.9 0 0 0 11.9-5.3l21.4-23.8A21.6 21.6 0 0 0 576 248.2 21 21 0 0 0 570.7 236.3zM288 176a64 64 0 1 1 -64 64A64 64 0 0 1 288 176zM400 448H176a16 16 0 0 1 -16-16 96 96 0 0 1 96-96h64a96 96 0 0 1 96 96A16 16 0 0 1 400 448z"/></svg>